<?xml version="1.0" encoding="UTF-8" standalone="no"?>
<!-- Created with Inkscape (http://www.inkscape.org/) -->

<svg
   width="300"
   height="200"
   viewBox="0 0 79.374998 52.916666"
   version="1.1"
   id="svg1"
   xmlns:inkscape="http://www.inkscape.org/namespaces/inkscape"
   xmlns:sodipodi="http://sodipodi.sourceforge.net/DTD/sodipodi-0.dtd"
   xmlns="http://www.w3.org/2000/svg"
   xmlns:svg="http://www.w3.org/2000/svg">
  <sodipodi:namedview
     id="namedview1"
     pagecolor="#505050"
     bordercolor="#eeeeee"
     borderopacity="1"
     inkscape:showpageshadow="0"
     inkscape:pageopacity="0"
     inkscape:pagecheckerboard="0"
     inkscape:deskcolor="#505050"
     inkscape:document-units="mm" />
  <defs
     id="defs1">
    <rect
       x="43.257023"
       y="48.664146"
       width="213.04083"
       height="102.73542"
       id="rect1" />
  </defs>
  <g
     inkscape:label="Camada 1"
     inkscape:groupmode="layer"
     id="layer1">
    <text
       xml:space="preserve"
       transform="matrix(0.93735732,0,0,0.96732915,-23.98873,-30.361714)"
       id="text1"
       style="font-size:13.8929px;line-height:0;letter-spacing:0.555717px;word-spacing:0px;white-space:pre;shape-inside:url(#rect1);fill:#ffffff;stroke-linecap:round;stroke-linejoin:round"><tspan
         x="43.257812"
         y="57.314833"
         id="tspan3"><tspan
           style="font-style:italic;font-weight:bold;line-height:10.5586px;font-family:Consolas;-inkscape-font-specification:'Consolas Bold Italic'"
           id="tspan1">AIR&#10;</tspan></tspan><tspan
         x="43.257812"
         y="67.873434"
         id="tspan5"><tspan
           style="font-style:italic;font-weight:bold;line-height:10.5586px;font-family:Consolas;-inkscape-font-specification:'Consolas Bold Italic'"
           id="tspan4">JORDAN</tspan></tspan></text>
    <path
       style="display:inline;fill:#ffffff;fill-opacity:1;stroke-width:0.711108"
       d="m 43.041527,24.842963 c -0.0084,-9.96e-4 -0.05765,-0.0049 -0.109501,-0.0087 -0.28704,-0.02117 -0.593471,-0.08657 -0.839516,-0.179168 -0.09782,-0.03682 -0.127767,-0.0501 -0.249421,-0.110626 -0.266803,-0.132748 -0.445476,-0.268436 -0.669574,-0.508488 -0.186635,-0.199919 -0.328945,-0.424054 -0.430327,-0.677754 -0.07008,-0.175367 -0.117647,-0.369167 -0.145369,-0.592232 -0.01715,-0.13801 -0.0156,-0.537972 0.0027,-0.696555 0.03225,-0.279386 0.09607,-0.581727 0.179139,-0.848642 0.03859,-0.124009 0.06109,-0.192425 0.06931,-0.210798 0.0047,-0.01054 0.0086,-0.02123 0.0086,-0.02373 0,-0.01538 0.08825,-0.239113 0.165451,-0.419435 0.0958,-0.223778 0.255319,-0.541239 0.370732,-0.737806 0.01627,-0.0277 0.02957,-0.05213 0.02957,-0.05427 0,-0.0021 0.0036,-0.0082 0.0082,-0.01351 0.0045,-0.0052 0.01617,-0.02466 0.02586,-0.04306 0.0097,-0.0184 0.01909,-0.03483 0.02088,-0.0365 0.0018,-0.0017 0.02917,-0.04548 0.06083,-0.09733 0.03166,-0.05186 0.120522,-0.188387 0.197482,-0.303389 0.07697,-0.115003 0.142664,-0.213554 0.146009,-0.219004 0.0033,-0.0054 0.0077,-0.01128 0.0097,-0.01294 0.002,-0.0017 0.04003,-0.05368 0.0846,-0.115586 0.04455,-0.06191 0.114807,-0.157257 0.156111,-0.211907 0.0413,-0.05465 0.0751,-0.101645 0.0751,-0.104427 0,-0.0027 0.0025,-0.006 0.0055,-0.0072 0.003,-0.0011 0.04068,-0.0472 0.08365,-0.102416 0.301698,-0.387677 0.789464,-0.959799 1.218813,-1.429593 0.0321,-0.03512 0.114075,-0.125472 0.182151,-0.200753 0.154662,-0.171036 0.195671,-0.214262 0.199573,-0.21036 0.0017,0.0017 -0.0137,0.03184 -0.03421,0.06701 -0.0205,0.03517 -0.03729,0.06652 -0.03729,0.06967 0,0.0031 -0.0022,0.0068 -0.0049,0.0078 -0.0171,0.0071 -0.305344,0.557731 -0.305344,0.583347 0,0.0033 -0.004,0.01223 -0.0089,0.01963 -0.01056,0.01619 -0.08731,0.192358 -0.117191,0.268979 -0.01175,0.03012 -0.02652,0.06635 -0.03287,0.08054 -0.0064,0.01417 -0.01151,0.02938 -0.01151,0.03377 0,0.0044 -0.0024,0.01057 -0.0053,0.01376 -0.01314,0.0142 -0.129509,0.359835 -0.162721,0.48333 -0.03364,0.125039 -0.04018,0.150361 -0.04799,0.185544 -0.0045,0.02008 -0.01365,0.06115 -0.02044,0.09124 -0.09402,0.417604 -0.110344,0.84964 -0.04561,1.207564 0.02276,0.125878 0.06793,0.282 0.118295,0.408932 0.0534,0.134569 0.190404,0.372137 0.254679,0.441606 0.01031,0.01108 0.01863,0.02173 0.01863,0.02368 0,0.01179 0.139653,0.163228 0.208393,0.225978 0.356929,0.325827 0.754846,0.482995 1.376345,0.543628 0.121577,0.01187 0.468179,0.02568 0.699597,-0.0031 2.088809,-0.259818 4.251944,-0.982783 6.129089,-1.519841 0.03825,-0.01094 0.09461,-0.02522 0.124711,-0.03364 0.05431,-0.01515 0.08519,-0.02331 0.249421,-0.06578 0.04684,-0.01212 0.104333,-0.02742 0.127753,-0.03401 0.02343,-0.0067 0.05217,-0.01455 0.06388,-0.01769 0.123808,-0.03321 0.440894,-0.117545 0.550552,-0.146423 0.05019,-0.01323 0.13779,-0.03641 0.19467,-0.05155 0.05688,-0.01513 0.139007,-0.03689 0.182504,-0.04835 0.0435,-0.01145 0.105089,-0.02795 0.136877,-0.03665 0.03178,-0.0087 0.08243,-0.02237 0.112544,-0.03038 0.123111,-0.03274 0.217909,-0.05783 0.307215,-0.08132 0.05186,-0.01364 0.181895,-0.04832 0.288963,-0.07707 0.107069,-0.02875 0.224784,-0.06015 0.261589,-0.06976 0.139545,-0.03648 0.646675,-0.171308 0.687429,-0.182762 0.02343,-0.0067 0.150717,-0.04059 0.28288,-0.07558 0.132163,-0.03499 0.29231,-0.07752 0.355882,-0.09453 0.06357,-0.01702 0.152543,-0.04054 0.197711,-0.05228 0.04517,-0.01174 0.09035,-0.02391 0.100386,-0.02703 0.0101,-0.0031 0.04973,-0.01397 0.08821,-0.02409 0.03848,-0.0101 0.163038,-0.04317 0.276797,-0.07344 0.11376,-0.03027 0.238319,-0.06325 0.276797,-0.07331 0.03848,-0.0101 0.105548,-0.02792 0.149044,-0.03967 0.0435,-0.01177 0.109199,-0.02928 0.146003,-0.0389 0.0368,-0.0097 0.113456,-0.03011 0.170336,-0.04553 0.05688,-0.01542 0.119845,-0.03206 0.13992,-0.03702 0.02008,-0.0049 0.04472,-0.01166 0.05474,-0.01495 0.0101,-0.0032 0.07163,-0.01968 0.136877,-0.03645 0.06525,-0.01677 0.132315,-0.03446 0.149044,-0.03933 0.02693,-0.0078 0.421593,-0.112958 0.574886,-0.153141 0.03178,-0.0083 0.08243,-0.02185 0.112544,-0.03005 0.049,-0.01333 0.0943,-0.02529 0.261588,-0.06914 0.02677,-0.0071 0.08425,-0.02244 0.127753,-0.03428 0.0435,-0.01185 0.105089,-0.02844 0.136877,-0.03689 0.03178,-0.0084 0.07148,-0.01917 0.08821,-0.02385 0.03178,-0.0089 0.251193,-0.06691 0.392383,-0.103811 0.04517,-0.0118 0.127296,-0.03366 0.182503,-0.04857 0.05521,-0.01491 0.137333,-0.03669 0.182503,-0.04839 0.04517,-0.01171 0.101292,-0.02668 0.124712,-0.03326 0.04427,-0.01245 0.04806,-0.01348 0.14296,-0.03884 0.0617,-0.0165 0.378752,-0.100583 0.504926,-0.133911 0.04182,-0.01105 0.118475,-0.03142 0.170337,-0.04525 0.05186,-0.01384 0.129881,-0.03454 0.173379,-0.046 0.0435,-0.01145 0.105089,-0.02795 0.136876,-0.03665 0.06581,-0.01802 0.136259,-0.03674 0.237255,-0.06311 0.03848,-0.0101 0.21505,-0.05697 0.392383,-0.10429 0.177332,-0.04732 0.341586,-0.09101 0.365006,-0.09712 0.04698,-0.01224 0.390581,-0.103676 0.571845,-0.152207 0.06357,-0.01701 0.156649,-0.04192 0.206836,-0.05535 0.05018,-0.01342 0.107677,-0.02843 0.127753,-0.03334 0.02008,-0.0049 0.05566,-0.01436 0.07909,-0.02097 0.02343,-0.0067 0.152087,-0.04086 0.285923,-0.07609 0.133836,-0.03524 0.24676,-0.06527 0.250942,-0.06674 0.0042,-0.0015 0.0076,-2.06e-4 0.0076,0.0028 0,0.0029 -0.0062,0.0075 -0.01368,0.0098 -0.0076,0.0023 -0.02738,0.01054 -0.0441,0.01817 -0.01673,0.0077 -0.07011,0.0308 -0.118627,0.0515 -0.04852,0.0207 -0.101895,0.04387 -0.118628,0.05148 -0.01673,0.0076 -0.09338,0.04049 -0.170336,0.07303 -0.07695,0.03255 -0.153607,0.06541 -0.170336,0.073 -0.01673,0.0076 -0.09338,0.04045 -0.170337,0.073 -0.07696,0.03255 -0.153607,0.06541 -0.170336,0.07301 -0.01673,0.0076 -0.09338,0.04046 -0.170337,0.073 -0.07695,0.03256 -0.153607,0.06541 -0.170337,0.073 -0.01673,0.0076 -0.09338,0.04045 -0.170336,0.073 -0.07695,0.03255 -0.153607,0.06541 -0.170337,0.073 -0.01673,0.0076 -0.09338,0.04046 -0.170337,0.073 -0.07695,0.03255 -0.153607,0.06541 -0.170336,0.073 -0.01673,0.0076 -0.09338,0.04045 -0.170336,0.073 -0.07695,0.03255 -0.153608,0.06541 -0.170338,0.073 -0.01672,0.0076 -0.09338,0.04045 -0.170336,0.073 -0.07696,0.03255 -0.153607,0.06541 -0.170337,0.073 -0.01673,0.0076 -0.09338,0.04045 -0.170335,0.073 -0.07696,0.03255 -0.153608,0.06541 -0.170337,0.073 -0.01673,0.0076 -0.09338,0.04045 -0.170336,0.073 -0.07696,0.03255 -0.153608,0.06541 -0.170337,0.073 -0.01673,0.0076 -0.09338,0.04045 -0.170337,0.073 -0.07695,0.03255 -0.153607,0.06541 -0.170336,0.07302 -0.01673,0.0076 -0.06464,0.02814 -0.106461,0.04563 -0.06482,0.02712 -4.289007,1.836011 -4.34054,1.858724 -0.0101,0.0044 -0.08395,0.03597 -0.164253,0.07008 -0.08031,0.03411 -0.156953,0.06697 -0.170336,0.07299 -0.01338,0.0061 -0.09004,0.03887 -0.170337,0.073 -0.08031,0.03412 -0.156954,0.06697 -0.170336,0.073 -0.01338,0.0061 -0.09004,0.03887 -0.170337,0.073 -0.08031,0.03413 -0.156953,0.06697 -0.170337,0.073 -0.01338,0.0061 -0.09003,0.03887 -0.170336,0.073 -0.08031,0.03413 -0.156953,0.06697 -0.170337,0.073 -0.01338,0.0061 -0.09003,0.03887 -0.170337,0.07301 -0.08031,0.03412 -0.156951,0.06697 -0.170336,0.073 -0.01338,0.0061 -0.09004,0.03887 -0.170336,0.073 -0.08031,0.03412 -0.156953,0.06697 -0.170338,0.073 -0.01338,0.0061 -0.09002,0.03887 -0.170336,0.073 -0.0803,0.03412 -0.156951,0.06697 -0.170337,0.073 -0.01338,0.0061 -0.09003,0.03887 -0.170335,0.073 -0.08031,0.03412 -0.156954,0.06697 -0.170337,0.073 -0.01338,0.0061 -0.09003,0.03887 -0.170336,0.073 -0.08031,0.03412 -0.156955,0.06694 -0.170337,0.07291 -0.01338,0.006 -0.09682,0.04161 -0.18544,0.07915 -0.08861,0.03755 -0.16526,0.07041 -0.170337,0.07301 -0.005,0.0026 -0.08178,0.03552 -0.170441,0.07314 -0.08866,0.03762 -0.165318,0.07048 -0.170337,0.073 -0.005,0.0025 -0.08167,0.03538 -0.170337,0.073 -0.08866,0.03762 -0.165317,0.07048 -0.170336,0.073 -0.005,0.0025 -0.08167,0.03537 -0.170337,0.073 -0.08866,0.03762 -0.165318,0.07048 -0.170336,0.07301 -0.005,0.0025 -0.08167,0.03537 -0.170337,0.073 -0.08866,0.03762 -0.165318,0.07048 -0.170336,0.073 -0.005,0.0025 -0.08167,0.03537 -0.170337,0.073 -0.08866,0.03762 -0.165317,0.07048 -0.170335,0.07302 -0.005,0.0025 -0.0625,0.02698 -0.127754,0.05431 -0.06524,0.02732 -0.146003,0.06157 -0.179462,0.07611 -0.03345,0.01454 -0.127903,0.05504 -0.20988,0.08999 -0.08197,0.03496 -0.158624,0.06791 -0.170335,0.07322 -0.0117,0.0053 -0.08836,0.03816 -0.170337,0.07301 -0.08197,0.03484 -0.158626,0.0677 -0.170336,0.073 -0.01171,0.0053 -0.08836,0.03817 -0.170337,0.073 -0.08197,0.03484 -0.158625,0.0677 -0.170335,0.073 -0.0117,0.0053 -0.08836,0.03816 -0.170337,0.073 -0.08197,0.03484 -0.158626,0.0677 -0.170337,0.073 -0.0117,0.0053 -0.08836,0.03816 -0.170337,0.073 -0.08197,0.03484 -0.158625,0.0677 -0.170336,0.073 -0.03405,0.01544 -0.318092,0.136466 -0.403476,0.171924 -0.04291,0.01783 -0.08944,0.03772 -0.103415,0.04421 -0.01396,0.0066 -0.05005,0.02201 -0.08016,0.03448 -0.03012,0.01245 -0.06895,0.02914 -0.0863,0.03705 -0.01735,0.0079 -0.03305,0.01439 -0.03488,0.01439 -0.0019,0 -0.02029,0.0082 -0.04101,0.01826 -0.02072,0.0101 -0.03998,0.01824 -0.04281,0.01824 -0.0028,0 -0.02218,0.008 -0.04303,0.01766 -0.02084,0.0097 -0.06253,0.02788 -0.09265,0.04036 -0.03012,0.01249 -0.06895,0.02918 -0.0863,0.03709 -0.01735,0.0079 -0.03297,0.01439 -0.03472,0.01439 -0.0017,0 -0.02039,0.0079 -0.04145,0.01755 -0.02107,0.0097 -0.05198,0.02298 -0.06872,0.02965 -0.03794,0.01512 -0.421416,0.17612 -0.438007,0.183903 -0.02375,0.01114 -0.269291,0.108601 -0.374133,0.148501 -0.05855,0.02229 -0.111935,0.04287 -0.118627,0.04576 -0.0068,0.0029 -0.03681,0.01406 -0.06692,0.02484 -0.03011,0.01078 -0.06022,0.02183 -0.06692,0.02458 -0.0068,0.0027 -0.02722,0.0097 -0.04562,0.01535 -0.0184,0.0056 -0.0362,0.01229 -0.03955,0.01464 -0.0033,0.0023 -0.02251,0.0093 -0.04259,0.01524 -0.02008,0.0061 -0.06114,0.01994 -0.09124,0.0309 -0.09081,0.03306 -0.374445,0.122542 -0.52097,0.164347 -0.615571,0.17563 -1.145783,0.273808 -1.656904,0.306805 -0.08035,0.0051 -0.49812,0.0072 -0.538386,0.0025 z"
       id="path19"
       sodipodi:nodetypes="ccssssscscsssssscsscccsscsssssscscscsccccsscsssascscscssssssccsssccscccsccsccccscsssssssssscscssscscsccsssssscsssssscssssssssscscccscscccccscscscccssssscssscsscssscsssscsccsscscssscssscsccccssccc" />
  </g>
</svg>
